# xmcd
#
# Track frame offsets: 
#        187
#        18327
#        38710
#        57540
#        75545
#        96190
#        116802
#        132395
#
# Disc length: 2036 seconds
#
# Revision: 2
# Processed by: cddbd v1.5.2PL0 Copyright (c) Steve Scherf et al.
# Submitted via: ExactAudioCopy v0.99pb5
#
DISCID=6607f208
DTITLE=El Gran Combo - Nuestra Musica
DYEAR=1985
DGENRE=Salsa
TTITLE0=La fiesta de Pilito
TTITLE1=No hay cama pa' tanta gente
TTITLE2=El arbolito
TTITLE3=Desenfunda
TTITLE4=El jibaro listo
TTITLE5=El alma de las fiestas
TTITLE6=Asalto navideño
TTITLE7=Cosas del campo
EXTD=YEAR: 1985
EXTT0=
EXTT1=
EXTT2=
EXTT3=
EXTT4=
EXTT5=
EXTT6=
EXTT7=
PLAYORDER=
